<?xml version="1.0" encoding="UTF-8"?><svg id="Camada_2" xmlns="http://www.w3.org/2000/svg" viewBox="0 0 946.05 421.12"><defs><style>.cls-1{font-family:Poppins-ExtraLight, Poppins;font-size:300.16px;font-weight:200;}.cls-2{fill:#85cee9;}.cls-3{fill:blue;}.cls-4{fill:#007eaa;}.cls-5{fill:#009ccc;}</style></defs><g id="Camada_1-2"><g><text class="cls-1" transform="translate(0 255.13)"><tspan x="0" y="0">FleeV</tspan></text><g><path class="cls-4" d="M806,154c.86-5.81,3.98-21.49,17.19-34.81,17.03-17.19,38.52-18.03,44.81-18.19,25.57-.62,42.82,13.4,47,17,2.33-3.33,4.67-6.67,7-10-4.45-3.65-11.11-8.36-20-12-25.41-10.41-61.97-9.28-86.66,13.81-16.6,15.53-21.42,34.99-22.99,44.09,4.55,.04,9.1,.07,13.65,.11Z"/><path class="cls-3" d="M858,245c-6.41-1.03-19.84-4.14-32-15-21.5-19.21-21.13-46.7-21-51h-14c-.12,5.49-.18,32.73,21,55,17.35,18.25,38.41,22.07,45,23,.33-4,.67-8,1-12Z"/><path class="cls-5" d="M930,202c-1.16,5.81-3.67,13.77-9.44,21.44-16.87,22.45-46.39,22.27-50.38,22.19,.61,3.79,1.21,7.58,1.82,11.37,4.9,.11,36.61,.28,57.47-24.39,9.58-11.33,13.1-23.44,14.53-30.61h-14Z"/><path class="cls-2" d="M931,150c.4,2.17,.75,4.51,1,7,.39,3.95,.48,7.59,.38,10.84-29.53-.02-59.06-.04-88.59-.06-.14,3.68-.28,7.37-.42,11.05h101.79c.62-4.5,1.03-9.84,.84-15.84-.15-4.75-.64-9.04-1.28-12.78-4.57-.07-9.15-.15-13.72-.22Z"/></g></g></g></svg>